<svg xmlns="http://www.w3.org/2000/svg" version="1.1" baseProfile="tiny" x="0" y="0" width="42" height="42" viewBox="0" xml:space="preserve"><path fill-rule="evenodd" d="M12.9 23.5c-0.4 0.7-0.2 1.4 0.7 2.2l0.8 0.8c0.8 0.8 1.5 1.1 2.2 0.7 0.3-0.1 0.5-0.4 0.8-0.7l4.5-4.5c0.8-0.7 1.7-0.4 2.5 0.4 0.8 0.8 1.4 1.8 0.6 2.7l-6.8 6.8c-2.4 2.4-6.1 3-9 0 -2.7-2.7-2.4-6.6 0-9L22.8 9.2c2.4-2.4 6-3.1 9 0 3.1 3.1 2.6 6.4 0.8 8.3 -1.2 1.2-1 2.5-0.3 3.3l0.8 0.7c1.1 1.1 2.2 0.8 3.3-0.4 3.8-4.6 3.6-11.5-0.7-15.8 -4.6-4.6-12-4.6-16.6 0L5.4 19c-4.6 4.6-4.6 12 0 16.6 4.6 4.6 12 4.6 16.6 0l6.8-6.8c2-3.1 1.8-7.1-1-9.9 -2.7-2.7-6.6-2.8-9.7-0.8l-4.5 4.5C13.3 23 13.1 23.2 12.9 23.5z"/></svg>