<svg xmlns="http://www.w3.org/2000/svg" version="1.1" baseProfile="tiny" x="0px" y="0px" width="42px" height="42px" viewBox="-0.5 0.5 42 42" xml:space="preserve"><path d="M14.41 22.58c0 3.359 2.73 6.09 6.09 6.09 3.359 0 6.09-2.73 6.09-6.09 0-3.36-2.73-6.09-6.09-6.09C17.14 16.49 14.41 19.221 14.41 22.58zM3.5 36.5h34c2.63 0 3-0.37 3-3v-23c0-2.462-0.38-3-3-3h-10c0-2.57-0.42-3-3-3h-8c-2.55 0-3 0.48-3 3h-10c-2.58 0-3 0.692-3 3v23C0.5 36.1 0.88 36.5 3.5 36.5zM11.14 22.58c0-5.17 4.19-9.359 9.36-9.359s9.359 4.189 9.359 9.359 -4.189 9.359-9.359 9.359S11.14 27.75 11.14 22.58z"/></svg>