<svg xmlns="http://www.w3.org/2000/svg" version="1.1" baseProfile="tiny" x="0px" y="0px" width="42px" height="42px" viewBox="-0.5 0.5 42 42" xml:space="preserve"><path d="M12.5 16.5v17h3v-17H12.5zM18.5 16.5v17h3v-17H18.5zM24.5 16.5v17h3v-17H24.5zM27.5 4.5c0-2.5-0.609-3-3-3h-10c-2.52 0-2.98 0.55-2.98 3.01L11.5 7.5h-8c-1.48 0-2 0.49-2 2v1c0 1.55 0.52 2 2 2h1v26c0 2.49 0.55 3 3 3h24c2.5 0 4-0.471 4-3v-26h1c1.51 0 2-0.48 2-2v-1c0-1.48-0.43-2-2-2h-9V4.5zM24.5 4.5v3h-10v-3H24.5zM9.5 12.5h21v24h-21V12.5z"/></svg>