<svg xmlns="http://www.w3.org/2000/svg" version="1.1" baseProfile="tiny" x="0" y="0" width="42" height="42" viewBox="-0.5" xml:space="preserve"><path d="M29.58 8.68l-0.13 0.12L8.3 29.95c-0.25 0.25-0.43 0.48-0.55 0.69 -2.04-2.64-3.23-6-3.23-9.7 0-8.8 6.63-15.48 15.42-15.48C23.63 5.46 26.96 6.64 29.58 8.68zM10.94 33.7c0.19-0.12 0.39-0.29 0.61-0.51l21.15-21.15 0.04-0.04c1.74 2.52 2.75 5.6 2.75 8.99 0 8.79-6.7 15.54-15.48 15.54C16.57 36.54 13.45 35.51 10.94 33.7zM0.5 21c0 10.78 8.74 19.5 19.5 19.5 10.77 0 19.5-8.72 19.5-19.5 0-10.77-8.73-19.5-19.5-19.5C9.24 1.5 0.5 10.23 0.5 21z"/></svg>