<svg xmlns="http://www.w3.org/2000/svg" version="1.1" baseProfile="tiny" x="0px" y="0px" width="42px" height="42px" viewBox="-0.5 0.5 42 42" xml:space="preserve"><path d="M0.5 7.5v27c0 2.52 0.51 3 3 3h34c2.471 0 3-0.46 3-3v-27c0-2.46-0.471-3-3-3h-34C1.02 4.5 0.5 4.93 0.5 7.5zM35.79 30.5H5.23c3.34-4.87 9.279-12.99 10.789-12.99 1.461 0 6.42 6.561 8.661 8.87 0 0 2.881-3.851 4.391-3.851C30.609 22.529 35.74 30.46 35.79 30.5zM26.811 13.5c0-2.04 1.649-3.689 3.689-3.689s3.689 1.649 3.689 3.689 -1.649 3.689-3.689 3.689S26.811 15.54 26.811 13.5z"/></svg>