<svg xmlns="http://www.w3.org/2000/svg" version="1.1" baseProfile="tiny" x="0" y="0" width="42" height="42" viewBox="-0.5" xml:space="preserve"><path d="M19.57 29.24L23.33 33c0 0 15.8-15.77 15.79-15.78 1.85-1.86 1.83-2.68 0-4.51 0.01-0.02-1.51-1.51-1.51-1.51L19.57 29.24zM17.86 27.53L35.9 9.49l-3.55-3.55L14.31 23.98 17.86 27.53zM30.85 4.44l-1.5-1.5c-1.91-1.91-2.59-1.93-4.51 0L9.05 18.72l3.76 3.76L30.85 4.44zM7.55 20.22L0.5 41.5l21.33-7L7.55 20.22zM6.05 30.86l5.26 5.26 -7.61 2.26L6.05 30.86z"/></svg>