<svg xmlns="http://www.w3.org/2000/svg" version="1.1" baseProfile="tiny" x="0px" y="0px" width="42px" height="42px" viewBox="-0.5 0.5 42 42" xml:space="preserve"><path d="M12.5 30.504V33.5h15v-2.996H12.5zM12.5 25.504V28.5h15v-2.996H12.5zM3.5 28.5h3v8.002c-0.01 2.43 0.548 2.998 3 2.998h21c2.452 0 3-0.452 3-2.998V28.5h3c2.55 0.04 3.029-0.527 3-2.998v-11c0-2.35-0.38-3.002-3-3.002h-3V6.502c0.029-2.47-0.45-3.002-3-3.002h-21c-2.4 0-3.01 0.572-3 3.002V11.5h-3c-2.58 0-3 0.562-3 3.002v11C0.49 27.932 1.1 28.54 3.5 28.5zM30.5 36.5h-21v-13h21V36.5zM32.38 18.002c0-0.9 0.72-1.619 1.62-1.619s1.62 0.719 1.62 1.619 -0.72 1.62-1.62 1.62S32.38 18.902 32.38 18.002zM9.5 6.5h21v5.004h-21V6.5z"/></svg>