<svg xmlns="http://www.w3.org/2000/svg" version="1.1" baseProfile="tiny" x="0" y="0" width="42" height="42" viewBox="0" xml:space="preserve"><path d="M17.74 30.52c0 0.82 0.26 1.48 0.78 2.01 0.53 0.52 1.19 0.79 1.97 0.79 0.8 0 1.46-0.27 1.99-0.78 0.54-0.53 0.81-1.19 0.81-2.01 0-0.81-0.27-1.48-0.81-2 -0.53-0.53-1.19-0.79-1.99-0.79 -0.79 0-1.44 0.26-1.97 0.79C18 29.04 17.74 29.72 17.74 30.52zM18.68 24.98h3.75c-0.1-0.77-0.05-1.14 0.18-1.76 0.24-0.62 0.55-1.2 0.94-1.75 0.38-0.55 0.81-1.07 1.31-1.58 0.48-0.5 0.94-1.02 1.35-1.57 0.42-0.55 0.77-1.12 1.06-1.73 0.29-0.62 0.43-1.29 0.43-2.06 0-0.98-0.17-1.84-0.5-2.58 -0.34-0.75-0.81-1.36-1.43-1.86 -0.62-0.51-1.35-0.88-2.19-1.13 -0.85-0.25-1.76-0.38-2.76-0.38 -1.36 0-2.59 0.3-3.67 0.89 -1.09 0.58-2.04 1.32-2.83 2.24l2.38 2.11c0.54-0.58 1.13-1.02 1.74-1.36 0.63-0.33 1.31-0.5 2.08-0.5 0.95 0 1.68 0.26 2.22 0.79 0.53 0.53 0.8 1.22 0.8 2.08 0 0.55-0.14 1.06-0.41 1.53 -0.28 0.48-0.62 0.97-1.02 1.45 -0.41 0.49-0.85 1-1.3 1.5 -0.46 0.52-0.87 1.06-1.23 1.66 -0.36 0.6-0.63 1.25-0.81 1.97C18.56 23.65 18.55 24.13 18.68 24.98zM1.5 21c0 10.77 8.74 19.5 19.5 19.5 10.77 0 19.5-8.73 19.5-19.5 0-10.77-8.73-19.5-19.5-19.5C10.24 1.5 1.5 10.23 1.5 21zM5.09 21c0-8.78 7.12-15.91 15.91-15.91S36.91 12.22 36.91 21 29.79 36.91 21 36.91 5.09 29.79 5.09 21z"/></svg>