<svg xmlns="http://www.w3.org/2000/svg" version="1.1" baseProfile="tiny" x="0" y="0" width="42" height="42" viewBox="0" xml:space="preserve"><path d="M6.6 24.5c0.4 1.6 1.1 3.1 1.9 4.5L6.1 31.4c-1.1 1.1-1.1 1.7-0.1 2.7l2.4 2.4c1 1 1.6 1 2.7-0.1l2.6-2.6c1.2 0.7 2.5 1.2 3.9 1.6v3.1c0 1.6 0.5 2 1.8 2h3.4c1.4 0 1.8-0.5 1.8-2v-3.1c1.4-0.3 2.7-0.9 3.9-1.6l2.6 2.6c1.1 1.1 1.7 1.1 2.7 0.1l2.4-2.4c0.9-0.9 1-1.6-0.1-2.7l-2.5-2.5c0.9-1.4 1.5-2.9 1.9-4.5h3.3c1.4 0 1.8-0.5 1.8-2v-3c0-1.5-0.4-2-1.8-2h-3.3c-0.3-1.4-0.9-2.7-1.6-3.9l2.4-2.4c1.1-1 1.1-1.7 0.1-2.7l-2.4-2.4c-0.9-0.9-1.6-0.9-2.7 0.1l-2.3 2.3C27.6 7.7 26.1 7 24.5 6.6V3.5c0-1.5-0.4-2-1.8-2h-3.4c-1.3 0-1.8 0.5-1.8 2v3.1c-1.6 0.4-3.1 1.1-4.5 1.9L10.8 6.3C9.7 5.2 9 5.2 8.1 6.2L5.7 8.6c-1 1-0.9 1.7 0.1 2.7l2.4 2.4c-0.7 1.2-1.2 2.5-1.5 3.9h-3.3c-1.3 0-1.8 0.5-1.8 2v3c0 1.6 0.5 2 1.8 2H6.6zM15.3 21c0-3.2 2.6-5.7 5.7-5.7s5.7 2.6 5.7 5.7S24.2 26.7 21 26.7 15.3 24.2 15.3 21z"/></svg>