<svg xmlns="http://www.w3.org/2000/svg" version="1.1" baseProfile="tiny" x="0" y="0" width="42" height="42" viewBox="0" xml:space="preserve"><path d="M13.5 9.53v-4c0-2.5-0.53-3-3-3l-4-0.03c-2.38 0-3 0.56-3 3v4c0 2.47 0.5 3 3 3h4C13 12.5 13.5 12 13.5 9.53zM13.5 22.53v-4c0-2.5-0.53-3-3-3l-4-0.03c-2.38 0-3 0.56-3 3v4c0 2.47 0.5 3 3 3h4C13 25.5 13.5 25 13.5 22.53zM13.5 35.53v-4c0-2.5-0.53-3-3-3l-4-0.03c-2.38 0-3 0.56-3 3v4c0 2.47 0.5 3 3 3h4C13 38.5 13.5 38 13.5 35.53zM26.5 9.53v-4c0-2.5-0.53-3-3-3l-4-0.03c-2.38 0-3 0.56-3 3v4c0 2.47 0.5 3 3 3h4C26 12.5 26.5 12 26.5 9.53zM26.5 22.53v-4c0-2.5-0.53-3-3-3l-4-0.03c-2.38 0-3 0.56-3 3v4c0 2.47 0.5 3 3 3h4C26 25.5 26.5 25 26.5 22.53zM26.5 35.53v-4c0-2.5-0.53-3-3-3l-4-0.03c-2.38 0-3 0.56-3 3v4c0 2.47 0.5 3 3 3h4C26 38.5 26.5 38 26.5 35.53zM39.5 9.53v-4c0-2.5-0.53-3-3-3l-4-0.03c-2.38 0-3 0.56-3 3v4c0 2.47 0.5 3 3 3h4C39 12.5 39.5 12 39.5 9.53zM39.5 22.53v-4c0-2.5-0.53-3-3-3l-4-0.03c-2.38 0-3 0.56-3 3v4c0 2.47 0.5 3 3 3h4C39 25.5 39.5 25 39.5 22.53zM39.5 35.53v-4c0-2.5-0.53-3-3-3l-4-0.03c-2.38 0-3 0.56-3 3v4c0 2.47 0.5 3 3 3h4C39 38.5 39.5 38 39.5 35.53z"/></svg>