<svg xmlns="http://www.w3.org/2000/svg" version="1.1" baseProfile="tiny" x="0" y="0" width="42" height="42" viewBox="0" xml:space="preserve"><g transform="matrix(.57079,0,0,-.57079,-42.80937,432.2052)"><path d="M146.8 743.4c-0.5-1-1.3-2.2-2.6-3.7 -1.3-1.5-2.8-2.8-4.7-3.9 0.1-0.4 0.1-0.8 0.1-1.2 0.2-5.6-1.1-11.3-3-16.1 -3.6-8.9-9.2-16.1-17.1-21 -8.3-4.7-17.9-5.7-26.7-4.8 -5.9 0.7-11.7 2.6-16.1 6.1 8-0.9 15.5 1.8 21.4 6.1 -6.6-0.2-11.3 4.5-13.6 10 1-0.3 2.1-0.2 3-0.2 1.2 0.1 2.3 0.2 3.4 0.5 -4.2 1.3-7.9 3.8-9.8 7.5 -1.1 2.3-1.6 4.6-1.6 7.1 2-1 4.3-2 6.5-1.9 -3.3 2.7-5.9 6.2-6.4 10.2 -0.3 3.3 0.5 6.4 1.8 9.2 4.9-5.3 10.4-9.7 16.7-12.4 4.3-1.8 8.6-2.7 13.1-2.7 -0.5 3.9-0.1 7.7 1.8 11 2.2 3.5 5.4 5.5 9 6.5 5.2 1.3 10.2-0.5 13.4-4.1 3.4 0.4 6.7 1.9 9.3 3.4 -1.1-3.3-3.3-6.6-6.4-8.2C141.3 741.4 144.2 742.3 146.8 743.4z"/></g></svg>